<svg xmlns="http://www.w3.org/2000/svg" width="181" height="57">
  <g fill="#FEFEFE" fill-rule="nonzero">
    <path d="M6.71 18.47c.036-.108.054-.233.054-.377 0-.27-.036-.404-.108-.404-.18 0-.503-.059-.97-.176-.467-.116-.719-.238-.755-.363-.162-.63-.243-1.465-.243-2.507v-4.258c0-.162.638-.243 1.914-.243 1.671 0 2.623.072 2.857.216.108.072.184.13.229.175.045.045.112.189.202.431.09.243.198.607.324 1.092.053.143.197.215.43.215.216 0 .36-.036.432-.107v-5.23c-.09-.089-.243-.134-.458-.134-.252 0-.386.063-.404.189a1.718 1.718 0 0 0-.054.242c-.198.809-.432 1.299-.701 1.47-.27.17-1.006.255-2.21.255H5.82c-.754 0-1.132-.054-1.132-.161V4.4c0-1.078.045-1.832.135-2.264.036-.233.827-.35 2.372-.35h1.806c.844 0 1.51.14 1.994.418.485.278.863.912 1.132 1.9.018.126.144.189.378.189.233 0 .395-.045.485-.135-.036-.216-.158-.75-.364-1.604a21.99 21.99 0 0 1-.418-2.062c-1.006 0-2.506.036-4.5.108C5.712.673 4.31.71 3.502.71 2.299.709 1.23.691.295.655.223.727.188.88.188 1.113c0 .216.035.324.107.324.234 0 .589.063 1.065.188.476.126.741.26.795.405.126.485.189 1.257.189 2.317v10.377c0 1.132-.063 1.94-.189 2.426-.054.143-.31.27-.768.377-.458.108-.804.162-1.038.162-.072 0-.108.125-.108.377 0 .198.036.332.108.404 2.067-.09 3.145-.135 3.234-.135h.033c.328.004 1.359.049 3.094.135Zm18.685 0c.036-.108.054-.233.054-.377 0-.27-.036-.404-.108-.404-.18 0-.503-.059-.97-.176-.467-.116-.719-.238-.755-.363-.161-.63-.242-1.465-.242-2.507V4.401c0-1.042.08-1.877.242-2.506.036-.126.288-.252.755-.377.467-.126.79-.19.97-.19.072 0 .108-.125.108-.376 0-.162-.018-.297-.054-.405-1.797.09-2.839.135-3.126.135-.09 0-1.168-.045-3.234-.135-.072.072-.108.216-.108.431 0 .234.036.35.108.35.233 0 .579.06 1.037.176.458.117.714.247.768.39.126.486.189 1.286.189 2.4V14.75c0 1.114-.063 1.913-.189 2.399-.054.143-.31.27-.768.377-.458.108-.804.162-1.037.162-.072 0-.108.125-.108.377 0 .198.036.332.108.404 2.066-.09 3.144-.135 3.234-.135h.032c.328.004 1.36.049 3.094.135Zm14.32.162c.395 0 .71-.297.943-.89l5.39-12.882a31.959 31.959 0 0 1 1.32-2.776c.27-.504.81-.755 1.618-.755.072 0 .108-.126.108-.377 0-.162-.018-.297-.054-.405l-2.722.135c-.252 0-1.213-.045-2.884-.135-.072.072-.108.22-.108.445s.036.337.108.337c.161 0 .373.022.633.067.26.045.535.157.822.337.288.18.431.395.431.647 0 .377-.17 1.006-.512 1.887l-4.043 9.756a.371.371 0 0 1-.202.202c-.098.045-.175.023-.229-.067a159.5 159.5 0 0 1-1.159-2.857c-1.567-3.831-2.592-6.461-3.074-7.89l-.061-.183c-.174-.529-.26-.865-.26-1.01 0-.233.125-.422.377-.566.251-.143.485-.233.7-.27a3.3 3.3 0 0 1 .513-.053c.053 0 .085-.112.094-.337.009-.225-.005-.373-.04-.445-1.797.09-2.911.135-3.343.135-.359 0-.696-.009-1.01-.027-.315-.018-.67-.036-1.065-.054a61.495 61.495 0 0 1-1.024-.054c-.072.072-.108.216-.108.431 0 .234.036.35.108.35.234 0 .548.055.943.163.396.107.656.26.782.458.36.539.763 1.401 1.213 2.587l5.525 13.934a.279.279 0 0 0 .27.162Zm27.094-.135c.036-.27.116-.61.242-1.024.126-.413.243-.777.35-1.092a94.282 94.282 0 0 1 .862-2.358c-.107-.108-.331-.162-.673-.162-.215 0-.341.054-.377.162-.198.683-.463 1.271-.795 1.766-.333.494-.633.813-.903.956-.593.306-1.725.459-3.396.459h-1.294c-1.168 0-1.778-.09-1.832-.27-.162-.467-.243-1.285-.243-2.453v-4.177c0-.162.647-.243 1.94-.243 1.672 0 2.624.072 2.858.216.107.072.184.13.229.175.045.045.112.189.202.431.09.243.197.607.323 1.092.054.144.198.215.431.215.216 0 .36-.035.432-.107V6.989c-.09-.09-.243-.135-.459-.135-.251 0-.386.063-.404.189-.08.31-.136.531-.167.664l-.016.076-.006.028c-.017.099-.085.256-.202.471-.116.216-.21.333-.283.35-.072.019-.233.064-.485.136-.251.071-.49.107-.714.107h-2.52c-.773 0-1.159-.054-1.159-.161V4.4c0-1.078.045-1.832.135-2.264.036-.233.826-.35 2.372-.35h1.805c.845 0 1.51.14 1.995.418.485.278.862.912 1.132 1.9.018.126.144.189.377.189.234 0 .395-.045.485-.135-.036-.216-.157-.75-.364-1.604A21.989 21.989 0 0 1 66.27.493c-1.007 0-2.507.036-4.501.108-1.995.072-3.396.108-4.205.108-1.204 0-2.273-.018-3.207-.054-.072.072-.108.225-.108.458 0 .216.036.324.108.324.233 0 .588.063 1.065.188.476.126.74.26.795.405.125.485.188 1.257.188 2.317v10.35c-.004 1.373-.067 2.164-.188 2.372-.09.161-.364.305-.822.431-.459.126-.805.189-1.038.189-.054 0-.08.116-.08.35 0 .234.026.377.08.431l3.261-.08c1.258 0 2.875.017 4.851.053 1.977.036 3.423.054 4.34.054Zm24.083-.027c.036-.108.054-.242.054-.404 0-.252-.036-.377-.108-.377-.233 0-.624-.072-1.172-.216-.548-.144-.867-.332-.957-.566-.144-.36-.216-1.14-.216-2.345V4.76c.002-.772.016-1.359.04-1.76.028-.43.06-.704.095-.821.036-.117.099-.184.189-.202.449-.126 1.078-.189 1.886-.189 1.168 0 2.03.373 2.588 1.119.557.745.835 1.756.835 3.032 0 1.042-.323 1.94-.97 2.695-.647.754-1.42 1.132-2.318 1.132a5.215 5.215 0 0 1-1.806-.297c-.036-.018-.062.01-.08.081-.054.288-.027.494.08.62.378.503 1.07.755 2.076.755.898 0 1.711-.184 2.439-.553.728-.368 1.307-.835 1.738-1.401.431-.566.76-1.15.984-1.752.225-.602.337-1.164.337-1.685 0-.88-.18-1.653-.54-2.318-.359-.664-.821-1.176-1.387-1.536a6.995 6.995 0 0 0-1.752-.808c-.602-.18-1.2-.27-1.792-.27-.521 0-1.15.018-1.887.054-.737.036-1.375.054-1.914.054L84.1.655c-.072.072-.108.225-.108.458 0 .216.036.324.108.324.234 0 .589.063 1.065.188.476.126.741.26.795.405.126.485.189 1.257.189 2.317v10.188c0 1.474-.063 2.318-.19 2.534-.089.161-.358.296-.808.404-.449.108-.8.162-1.05.162-.055 0-.082.117-.082.35 0 .27.027.431.081.485l3.288-.135c.54 0 1.707.045 3.504.135Zm23.995.027c.036-.27.117-.61.243-1.024.125-.413.242-.777.35-1.092a94.278 94.278 0 0 1 .862-2.358c-.107-.108-.332-.162-.673-.162-.216 0-.342.054-.378.162-.197.683-.462 1.271-.795 1.766-.332.494-.633.813-.903.956-.593.306-1.725.459-3.396.459h-1.293c-1.168 0-1.78-.09-1.833-.27-.162-.467-.243-1.285-.243-2.453v-4.177c0-.162.647-.243 1.94-.243 1.672 0 2.624.072 2.858.216.108.072.184.13.229.175.045.045.112.189.202.431.09.243.198.607.323 1.092.054.144.198.215.432.215.215 0 .359-.035.43-.107V6.989c-.089-.09-.242-.135-.457-.135-.252 0-.387.063-.405.189-.107.413-.17.669-.188.768-.018.099-.086.256-.202.471-.117.216-.211.333-.283.35-.072.019-.234.064-.485.136-.252.071-.49.107-.715.107h-2.52c-.772 0-1.159-.054-1.159-.161V4.4c0-1.078.045-1.832.135-2.264.036-.233.827-.35 2.372-.35h1.806c.844 0 1.509.14 1.994.418.485.278.863.912 1.132 1.9.018.126.144.189.377.189.234 0 .396-.045.486-.135-.036-.216-.158-.75-.364-1.604a21.989 21.989 0 0 1-.418-2.062c-1.006 0-2.507.036-4.501.108-1.994.072-3.396.108-4.205.108-1.203 0-2.272-.018-3.207-.054-.072.072-.108.225-.108.458 0 .216.036.324.108.324.234 0 .589.063 1.065.188.476.126.741.26.795.405.126.485.189 1.257.189 2.317v10.188c0 1.474-.063 2.318-.19 2.534-.089.161-.363.305-.821.431-.458.126-.804.189-1.038.189-.054 0-.08.116-.08.35 0 .234.026.377.08.431l3.261-.08c1.258 0 2.875.017 4.852.053 1.976.036 3.423.054 4.339.054Zm18.2-.027c.036-.108.054-.233.054-.377 0-.27-.036-.404-.108-.404-.18 0-.503-.059-.97-.176-.467-.116-.719-.238-.755-.363-.161-.63-.242-1.465-.242-2.507v-9.73c0-1.221.08-2.12.242-2.695.072-.27 1.06-.404 2.965-.404 1.024 0 1.72.148 2.089.445.368.296.678.948.93 1.954.018.09.107.134.27.134.305 0 .52-.062.646-.188l-.512-3.854c-.79.197-1.41.296-1.86.296-.683 0-1.644.018-2.884.054-1.24.036-2.255.054-3.045.054h-.173c-.764-.003-1.721-.02-2.873-.054a103.534 103.534 0 0 0-2.857-.054c-.449 0-1.069-.099-1.86-.296l-.511 3.854c.125.126.341.188.646.188.162 0 .252-.044.27-.134.252-1.006.561-1.658.93-1.954.368-.297 1.064-.445 2.089-.445 1.796 0 2.767.135 2.91.404.162.288.243 1.213.243 2.776v9.757c0 1.114-.063 1.913-.189 2.399-.054.143-.31.27-.768.377-.458.108-.804.162-1.037.162-.072 0-.108.125-.108.377 0 .198.036.332.108.404 2.066-.09 3.144-.135 3.234-.135h.032c.328.004 1.36.049 3.094.135Zm27.66 0a.887.887 0 0 0 .054-.27c0-.34-.036-.511-.107-.511-.216 0-.548-.086-.998-.256-.449-.171-.727-.391-.835-.66a46.003 46.003 0 0 1-.782-1.941L152.69.602l-.243-.082a.982.982 0 0 0-.337.054.672.672 0 0 0-.27.189c-.08.09-.147.17-.201.242a2.04 2.04 0 0 0-.189.337 4.7 4.7 0 0 0-.162.378c-.036.098-.085.247-.148.444a7.014 7.014 0 0 1-.148.432l-4.69 12.047c-.467 1.204-.89 2.048-1.266 2.534-.126.161-.36.287-.701.377-.342.09-.62.135-.836.135-.072 0-.108.125-.108.377 0 .198.036.332.108.404l.957-.054c.332-.018.633-.036.903-.054.27-.018.584-.027.943-.027.054 0 .98.045 2.776.135.036-.09.05-.242.04-.458-.008-.216-.04-.323-.094-.323-.161 0-.422-.04-.781-.122-.36-.08-.62-.184-.782-.31-.144-.107-.215-.287-.215-.539 0-.341.152-.96.458-1.86l1.159-2.964.134-.08a52.78 52.78 0 0 1 3.423-.136c.665 0 1.348.027 2.049.081.054 0 .108.036.161.108l1.105 3.046.108.296c.054.18.113.427.175.741.063.315.095.589.095.822 0 .144-.018.288-.054.432-.054.143-.243.26-.566.35-.324.09-.593.135-.809.135-.072 0-.112.112-.121.337-.009.224.023.372.094.444l3.127-.135h.02c.226.004 1.208.048 2.945.135Zm-9.27-8.085c-.342 0-.98-.018-1.915-.054-.035 0-.053-.036-.053-.108l2.317-6.01 2.184 5.956-.081.135c-.845.054-1.662.08-2.453.08Zm27.255 8.112c.036-.27.117-.61.243-1.024.125-.413.242-.777.35-1.092a94.26 94.26 0 0 1 .862-2.358c-.107-.108-.332-.162-.673-.162-.216 0-.342.054-.378.162-.197.683-.462 1.271-.795 1.766-.332.494-.633.813-.903.956-.593.306-1.725.459-3.396.459h-1.293c-1.168 0-1.779-.09-1.833-.27-.162-.629-.243-1.42-.243-2.372V4.402c0-1.043.081-1.878.243-2.507.036-.126.288-.252.755-.377.467-.126.79-.19.97-.19.072 0 .108-.125.108-.376 0-.162-.018-.297-.054-.405l-.97.068c-.396.027-.764.049-1.105.067-.342.018-.692.027-1.052.027-.485 0-1.087-.022-1.805-.067-.719-.045-1.195-.077-1.429-.095-.072.072-.108.216-.108.431 0 .234.036.35.108.35.234 0 .58.06 1.038.176.458.117.714.247.768.39.126.486.189 1.304.189 2.453v10.188c0 1.474-.063 2.318-.189 2.534-.09.161-.36.296-.809.404-.449.108-.8.162-1.05.162-.055 0-.082.117-.082.35 0 .234.027.377.081.431l3.262-.08c1.221 0 2.825.026 4.81.08 1.986.054 3.446.081 4.38.081Z"/>
    <path stroke="#FEFEFE" stroke-width=".3" d="M45.09 56.14c.297 0 .642-.197.937-.492.74-.592 1.725-2.267 2.169-3.844.493-1.725.739-3.5.739-5.224 0-2.908-.69-5.767-1.922-7.984l.394-1.824v-.05c.444 0 .887.05 1.282.05 5.42 0 10.053-1.725 13.848-4.041.197-.05.247-.197.247-.345 0-.247-.198-.542-.493-.542-.099 0-.148.05-.247.098-3.252 1.972-7.49 3.795-11.926 3.795-.345 0-.74 0-1.084-.05.788-.59 2.168-1.724 3.006-2.71 3.302-3.696 6.062-9.216 6.407-12.764.148-1.676-.395-2.81-1.873-2.81-4.041 0-7.442 8.33-9.906 18.482-.148.05-.444.099-.838.148-.394.05-.69.098-.838.148-.394.098-.542.345-.542.591 0 .148.05.296.148.394l.542.542c.197.148.345.296.444.395.098.148.246.394.443.64a95.042 95.042 0 0 0-1.774 10.596c-.197 1.775-.296 3.204-.296 4.337.099 1.775.542 2.464 1.134 2.464Zm2.613-20.6c2.168-9.019 5.47-16.806 8.674-17.25.838-.048 1.281.494 1.133 1.874-.098 1.527-.739 3.45-1.922 5.815-2.365 4.731-5.569 8.181-7.885 9.561Zm-1.43 1.971c-.049-.147-.246-.295-.492-.492.05-.05.098-.05.246-.05a.447.447 0 0 0 .345.148c-.05.05-.098.345-.098.394Zm-1.231 17.644v-.099c-.05-.049-.05-.098-.05-.148-.049-.197-.098-.985-.098-1.232 0-1.084.098-2.513.295-4.238.296-2.81.789-5.963 1.528-9.413C47.457 41.7 48 44.017 48 46.58c0 1.577-.247 3.302-.74 4.977-.148.542-.493 1.282-1.035 2.316-.345.592-.64.937-.788 1.085-.247.148-.345.246-.394.197Zm19.417-25.48c.05 0 .099-.049.148-.049.345-.197.591-.74.591-1.084 0-.197-.098-.345-.344-.345h-.148c-.395 0-.542.591-.542 1.035 0 .295.098.443.295.443Zm.197 8.723c2.285 0 5.263-1.629 8.192-3.406l.439-.268.438-.268.345-.247c.443-.246.887-.542 1.429-.887l1.035-.64c.197-.099.246-.198.246-.345 0-.247-.246-.493-.542-.493-.05 0-.099 0-.148.05-.345.147-1.183.689-2.513 1.527l-.395.197c-3.302 2.07-6.406 3.795-8.526 3.795-.837 0-1.527-.247-2.02-.887a2.197 2.197 0 0 1-.395-1.282c0-1.084.543-2.464 1.578-3.893.098-.099.098-.197.098-.296 0-.246-.246-.443-.493-.443a.427.427 0 0 0-.345.197c-1.232 1.725-1.823 3.154-1.823 4.386 0 .69.197 1.33.64 1.922.69.887 1.627 1.281 2.76 1.281Zm15.82-.64c3.056 0 6.95-2.07 8.92-4.78.1-.1.1-.247.1-.346 0-.246-.198-.443-.395-.443-.148 0-.296.098-.444.246-.837 1.035-3.4 3.006-5.027 3.696-1.182.444-2.217.641-3.104.641-1.479 0-2.514-.591-3.056-1.577-.148-.246-.197-.493-.246-.64a9.659 9.659 0 0 0 2.267-1.676c.69-.69 1.133-1.38 1.133-2.02 0-.543-.295-.987-1.035-1.332a2.286 2.286 0 0 0-.936-.197c-1.38 0-2.316 1.43-2.612 3.352v.345c0 .295 0 .69.05 1.084l.147.591c.148.444.246.789.394.986.74 1.43 2.169 2.07 3.844 2.07Zm-3.45-4.239v-.739c.1-.887.395-1.577.838-2.02.296-.296.592-.395.887-.395.444 0 .888.296.888.592-.198.788-1.085 1.577-2.317 2.365-.05.05-.148.148-.295.197Zm14.786 4.682c2.414 0 5.766-1.774 9.56-5.224.1-.098.1-.246.1-.394 0-.246-.1-.444-.346-.444a.532.532 0 0 0-.345.148c-3.548 2.957-6.456 4.88-8.97 4.88-2.07 0-3.006-1.085-3.35-3.056.837-.64 1.921-1.873 3.301-3.795 3.056-4.19 6.21-9.955 6.21-12.863 0-1.43-.591-2.415-1.824-2.661-1.97 0-3.794 2.267-5.618 5.963-1.922 3.844-3.154 8.23-3.154 11.582 0 1.774.345 3.302 1.084 4.287.789 1.084 1.972 1.577 3.352 1.577Zm-3.5-5.273c0-1.084.099-2.168.247-3.154 1.133-6.752 5.47-14.342 7.392-14.046.74.197 1.085.74 1.085 1.676 0 .295-.05.591-.099.936-.246 1.528-1.035 3.5-2.366 5.816-1.774 3.302-4.632 7.146-6.259 8.772Zm13.652 4.09c.345 0 .69-.049 1.035-.246 1.232-.542 2.612-1.577 4.09-3.105.247-.246.838-.985 1.035-1.232.345 2.464 1.577 4.14 4.288 4.14.296 0 .591 0 .887-.05 2.908-.394 5.224-1.626 9.019-3.843a.37.37 0 0 0 .246-.345c0-.099 0-.198-.049-.296-.098-.148-.246-.247-.394-.247-.05 0-.148.05-.247.1-3.696 2.168-6.9 3.745-9.413 3.745-2.316 0-3.45-1.479-3.499-4.337.542-.838.937-1.38 1.134-1.676.838-1.134 1.281-1.774 1.33-1.873l.592-1.035c.246-.394.542-.985.936-1.971.247-.64 1.084-2.71 1.232-3.302.296-.887.444-1.725.444-2.415 0-1.133-.394-2.02-1.38-2.415a.84.84 0 0 0-.493 0c-.394.099-.789.394-1.232.937l-.444.739c-1.823 3.302-2.858 7.244-3.055 11.877v.838c-.493.64-.789 1.035-.937 1.183-1.084-.937-2.02-1.33-2.907-1.33-2.169 0-3.598 1.773-4.042 3.203a2.79 2.79 0 0 0-.147.887c0 1.133.788 2.07 1.97 2.07Zm7.047-7.392c.247-4.337 1.233-7.935 2.908-10.842.493-.789.887-1.282 1.183-1.282.246 0 .444.345.591 1.183.05.64-.098 1.43-.394 2.464-.197.789-.64 2.02-1.183 3.204l-.394.887-.542 1.035c-.345.64-.394.788-1.134 1.823l-.739 1.035c-.148.197-.246.345-.296.493Zm-7.096 6.505a.86.86 0 0 1-.69-.345 1.376 1.376 0 0 1-.296-.887c0-2.267 1.774-3.105 3.302-3.105.64 0 1.38.1 2.168 1.183l-.049.05c-1.232 1.33-2.464 2.316-3.696 2.907-.296.148-.493.197-.74.197Zm22.177 3.401.148-.05c.936-.492 1.824-.886 3.351-1.478a9.18 9.18 0 0 1 1.183-.443l1.281-.444a86.39 86.39 0 0 0 2.662-1.035c2.908-1.232 5.175-2.563 6.752-4.041.147-.148.197-.247.197-.345a.447.447 0 0 0-.148-.345c-.247-.197-.493-.197-.69 0-1.528 1.43-3.696 2.71-6.505 3.844-.543.246-1.43.591-2.613 1.035-.147.05-.59.197-1.232.444-.147.049-.394.147-.64.197a4.268 4.268 0 0 0-.592.246 7.613 7.613 0 0 0-.634.234l-.21.085-.202.083-.183.076a24.34 24.34 0 0 0-.15.064c.049-.148.098-.345.098-.542 0-.246-.05-.493-.148-.788-.148-.592-.591-1.331-1.33-2.267l-.198-.296-.838-1.035c-.246-.345-.394-.64-.443-.789l-.099-.098c-.098-.099-.295-.197-.394-.197h-.098c-.247.049-.345.147-.345.295 0 .099 0 .148.049.247.098.345.296.69.542 1.084.148.148.936 1.134 1.084 1.38.74.887 1.33 1.676 1.33 2.366 0 .59-.344 1.084-1.231 1.626a.448.448 0 0 0-.197.394c0 .148 0 .197.049.247.098.147.246.246.394.246Z"/>
  </g>
</svg>
