<?xml version="1.0" encoding="UTF-8"?>
<svg width="377px" height="139px" viewBox="0 0 377 139" version="1.1" xmlns="http://www.w3.org/2000/svg" xmlns:xlink="http://www.w3.org/1999/xlink">
    <title>logo</title>
    <g id="logo-experiment" stroke="none" stroke-width="1" fill="none" fill-rule="evenodd">
        <g id="v2" transform="translate(-62.000000, -281.000000)" fill-rule="nonzero">
            <g id="logo" transform="translate(62.000000, 281.000000)">
                <path d="M15.421875,56.1640625 C15.4947917,55.9453125 15.53125,55.6901042 15.53125,55.3984375 C15.53125,54.8515625 15.4583333,54.578125 15.3125,54.578125 C14.9479167,54.578125 14.2916667,54.4596354 13.34375,54.2226562 C12.3958333,53.9856771 11.8854167,53.7395833 11.8125,53.484375 C11.484375,52.2083333 11.3203125,50.5130208 11.3203125,48.3984375 L11.3203125,48.3984375 L11.3203125,39.7578125 C11.3203125,39.4296875 12.6145833,39.265625 15.203125,39.265625 C18.59375,39.265625 20.5260417,39.4114583 21,39.703125 C21.21875,39.8489583 21.3736979,39.9674479 21.4648438,40.0585938 C21.5559896,40.1497396 21.6927083,40.4414062 21.875,40.9335938 C22.0572917,41.4257812 22.2760417,42.1640625 22.53125,43.1484375 C22.640625,43.4401042 22.9322917,43.5859375 23.40625,43.5859375 C23.84375,43.5859375 24.1354167,43.5130208 24.28125,43.3671875 L24.28125,43.3671875 L24.28125,32.7578125 C24.0989583,32.5755208 23.7890625,32.484375 23.3515625,32.484375 C22.8411458,32.484375 22.5677083,32.6119792 22.53125,32.8671875 C22.4947917,32.9765625 22.4583333,33.140625 22.421875,33.359375 C22.0208333,35 21.546875,35.9934896 21,36.3398438 C20.453125,36.6861979 18.9583333,36.859375 16.515625,36.859375 L16.515625,36.859375 L13.6171875,36.859375 C12.0859375,36.859375 11.3203125,36.75 11.3203125,36.53125 L11.3203125,36.53125 L11.3203125,27.6171875 C11.3203125,25.4296875 11.4114583,23.8984375 11.59375,23.0234375 C11.6666667,22.5494792 13.2708333,22.3125 16.40625,22.3125 L16.40625,22.3125 L20.0703125,22.3125 C21.7838542,22.3125 23.1328125,22.5950521 24.1171875,23.1601562 C25.1015625,23.7252604 25.8671875,25.0104167 26.4140625,27.015625 C26.4505208,27.2708333 26.7057292,27.3984375 27.1796875,27.3984375 C27.6536458,27.3984375 27.9817708,27.3072917 28.1640625,27.125 C28.0911458,26.6875 27.8450521,25.6028646 27.4257812,23.8710938 C27.0065104,22.1393229 26.7239583,20.7447917 26.578125,19.6875 C24.5364583,19.6875 21.4921875,19.7604167 17.4453125,19.90625 C13.3984375,20.0520833 10.5546875,20.125 8.9140625,20.125 C6.47135417,20.125 4.30208333,20.0885417 2.40625,20.015625 C2.26041667,20.1614583 2.1875,20.4713542 2.1875,20.9453125 C2.1875,21.3828125 2.26041667,21.6015625 2.40625,21.6015625 C2.88020833,21.6015625 3.60026042,21.7291667 4.56640625,21.984375 C5.53255208,22.2395833 6.0703125,22.5130208 6.1796875,22.8046875 C6.43489583,23.7890625 6.5625,25.3567708 6.5625,27.5078125 L6.5625,27.5078125 L6.5625,48.5625 C6.5625,50.859375 6.43489583,52.5 6.1796875,53.484375 C6.0703125,53.7760417 5.55078125,54.03125 4.62109375,54.25 C3.69140625,54.46875 2.98958333,54.578125 2.515625,54.578125 C2.36979167,54.578125 2.296875,54.8333333 2.296875,55.34375 C2.296875,55.7447917 2.36979167,56.0182292 2.515625,56.1640625 C6.70833333,55.9817708 8.89583333,55.890625 9.078125,55.890625 L9.14393207,55.8909501 C9.80911242,55.8970193 11.9017601,55.9880568 15.421875,56.1640625 Z M53.3359375,56.1640625 C53.4088542,55.9453125 53.4453125,55.6901042 53.4453125,55.3984375 C53.4453125,54.8515625 53.3723958,54.578125 53.2265625,54.578125 C52.8619792,54.578125 52.2057292,54.4596354 51.2578125,54.2226562 C50.3098958,53.9856771 49.7994792,53.7395833 49.7265625,53.484375 C49.3984375,52.2083333 49.234375,50.5130208 49.234375,48.3984375 L49.234375,48.3984375 L49.234375,27.6171875 C49.234375,25.5026042 49.3984375,23.8072917 49.7265625,22.53125 C49.7994792,22.2760417 50.3098958,22.0208333 51.2578125,21.765625 C52.2057292,21.5104167 52.8619792,21.3828125 53.2265625,21.3828125 C53.3723958,21.3828125 53.4453125,21.1276042 53.4453125,20.6171875 C53.4453125,20.2890625 53.4088542,20.015625 53.3359375,19.796875 C49.6901042,19.9791667 47.5755208,20.0703125 46.9921875,20.0703125 C46.8098958,20.0703125 44.6223958,19.9791667 40.4296875,19.796875 C40.2838542,19.9427083 40.2109375,20.234375 40.2109375,20.671875 C40.2109375,21.1458333 40.2838542,21.3828125 40.4296875,21.3828125 C40.9036458,21.3828125 41.6054688,21.5013021 42.5351562,21.7382812 C43.4648438,21.9752604 43.984375,22.2395833 44.09375,22.53125 C44.3489583,23.515625 44.4765625,25.1380208 44.4765625,27.3984375 L44.4765625,27.3984375 L44.4765625,48.6171875 C44.4765625,50.8776042 44.3489583,52.5 44.09375,53.484375 C43.984375,53.7760417 43.4648438,54.03125 42.5351562,54.25 C41.6054688,54.46875 40.9036458,54.578125 40.4296875,54.578125 C40.2838542,54.578125 40.2109375,54.8333333 40.2109375,55.34375 C40.2109375,55.7447917 40.2838542,56.0182292 40.4296875,56.1640625 C44.6223958,55.9817708 46.8098958,55.890625 46.9921875,55.890625 L47.0579946,55.8909501 C47.7231749,55.8970193 49.8158226,55.9880568 53.3359375,56.1640625 Z M82.390625,56.4921875 C83.1927083,56.4921875 83.8307292,55.890625 84.3046875,54.6875 L84.3046875,54.6875 L95.2421875,28.546875 C96.1901042,26.3229167 97.0833333,24.4453125 97.921875,22.9140625 C98.46875,21.8932292 99.5625,21.3828125 101.203125,21.3828125 C101.348958,21.3828125 101.421875,21.1276042 101.421875,20.6171875 C101.421875,20.2890625 101.385417,20.015625 101.3125,19.796875 C97.6666667,19.9791667 95.8255208,20.0703125 95.7890625,20.0703125 C95.2786458,20.0703125 93.328125,19.9791667 89.9375,19.796875 C89.7916667,19.9427083 89.71875,20.2434896 89.71875,20.6992188 C89.71875,21.1549479 89.7916667,21.3828125 89.9375,21.3828125 C90.265625,21.3828125 90.6940104,21.4283854 91.2226562,21.5195312 C91.7513021,21.6106771 92.3072917,21.8385417 92.890625,22.203125 C93.4739583,22.5677083 93.765625,23.0052083 93.765625,23.515625 C93.765625,24.28125 93.4192708,25.5572917 92.7265625,27.34375 L92.7265625,27.34375 L84.5234375,47.140625 C84.4505208,47.3229167 84.3138021,47.4596354 84.1132812,47.5507812 C83.9127604,47.6419271 83.7578125,47.5963542 83.6484375,47.4140625 C83.0651042,46.0286458 82.28125,44.0963542 81.296875,41.6171875 C78.1165865,33.843149 76.0371672,28.5067493 75.0586169,25.6079882 L74.9346672,25.235932 C74.5823891,24.1630991 74.40625,23.4802885 74.40625,23.1875 C74.40625,22.7135417 74.6614583,22.3307292 75.171875,22.0390625 C75.6822917,21.7473958 76.15625,21.5651042 76.59375,21.4921875 C77.03125,21.4192708 77.3776042,21.3828125 77.6328125,21.3828125 C77.7421875,21.3828125 77.8059896,21.1549479 77.8242188,20.6992188 C77.8424479,20.2434896 77.8151042,19.9427083 77.7421875,19.796875 C74.0963542,19.9791667 71.8359375,20.0703125 70.9609375,20.0703125 C70.2317708,20.0703125 69.5481771,20.0520833 68.9101562,20.015625 C68.2721354,19.9791667 67.5520833,19.9427083 66.75,19.90625 C65.9479167,19.8697917 65.2552083,19.8333333 64.671875,19.796875 C64.5260417,19.9427083 64.453125,20.234375 64.453125,20.671875 C64.453125,21.1458333 64.5260417,21.3828125 64.671875,21.3828125 C65.1458333,21.3828125 65.7838542,21.4921875 66.5859375,21.7109375 C67.3880208,21.9296875 67.9166667,22.2395833 68.171875,22.640625 C68.9010417,23.734375 69.7213542,25.484375 70.6328125,27.890625 L70.6328125,27.890625 L81.84375,56.1640625 C81.953125,56.3828125 82.1354167,56.4921875 82.390625,56.4921875 Z M137.367188,56.21875 C137.440104,55.671875 137.604167,54.9791667 137.859375,54.140625 C138.114583,53.3020833 138.351562,52.5638021 138.570312,51.9257812 C138.789062,51.2877604 139.089844,50.4492188 139.472656,49.4101562 C139.855469,48.3710938 140.138021,47.6145833 140.320312,47.140625 C140.101562,46.921875 139.645833,46.8125 138.953125,46.8125 C138.515625,46.8125 138.260417,46.921875 138.1875,47.140625 C137.786458,48.5260417 137.248698,49.7200521 136.574219,50.7226562 C135.89974,51.7252604 135.289062,52.3723958 134.742188,52.6640625 C133.539062,53.2838542 131.242188,53.59375 127.851562,53.59375 L127.851562,53.59375 L125.226562,53.59375 C122.856771,53.59375 121.617188,53.4114583 121.507812,53.046875 C121.179688,52.0989583 121.015625,50.4401042 121.015625,48.0703125 L121.015625,48.0703125 L121.015625,39.59375 C121.015625,39.265625 122.328125,39.1015625 124.953125,39.1015625 C128.34375,39.1015625 130.276042,39.2473958 130.75,39.5390625 C130.96875,39.6848958 131.123698,39.8033854 131.214844,39.8945312 C131.30599,39.9856771 131.442708,40.2773438 131.625,40.7695312 C131.807292,41.2617188 132.026042,42 132.28125,42.984375 C132.390625,43.2760417 132.682292,43.421875 133.15625,43.421875 C133.59375,43.421875 133.885417,43.3489583 134.03125,43.203125 L134.03125,43.203125 L134.03125,32.8671875 C133.848958,32.6848958 133.539062,32.59375 133.101562,32.59375 C132.591146,32.59375 132.317708,32.7213542 132.28125,32.9765625 C132.117188,33.6054688 132.004395,34.0549316 131.942871,34.3249512 L131.909451,34.47838 L131.909451,34.47838 L131.898438,34.5351562 C131.861979,34.7356771 131.72526,35.0546875 131.488281,35.4921875 C131.251302,35.9296875 131.059896,36.1666667 130.914062,36.203125 C130.768229,36.2395833 130.440104,36.3307292 129.929688,36.4765625 C129.419271,36.6223958 128.936198,36.6953125 128.480469,36.6953125 L128.480469,36.6953125 L123.367188,36.6953125 C121.799479,36.6953125 121.015625,36.5859375 121.015625,36.3671875 L121.015625,36.3671875 L121.015625,27.6171875 C121.015625,25.4296875 121.106771,23.8984375 121.289062,23.0234375 C121.361979,22.5494792 122.966146,22.3125 126.101562,22.3125 L126.101562,22.3125 L129.765625,22.3125 C131.479167,22.3125 132.828125,22.5950521 133.8125,23.1601562 C134.796875,23.7252604 135.5625,25.0104167 136.109375,27.015625 C136.145833,27.2708333 136.401042,27.3984375 136.875,27.3984375 C137.348958,27.3984375 137.677083,27.3072917 137.859375,27.125 C137.786458,26.6875 137.540365,25.6028646 137.121094,23.8710938 C136.701823,22.1393229 136.419271,20.7447917 136.273438,19.6875 C134.231771,19.6875 131.1875,19.7604167 127.140625,19.90625 C123.09375,20.0520833 120.25,20.125 118.609375,20.125 C116.166667,20.125 113.997396,20.0885417 112.101562,20.015625 C111.955729,20.1614583 111.882812,20.4713542 111.882812,20.9453125 C111.882812,21.3828125 111.955729,21.6015625 112.101562,21.6015625 C112.575521,21.6015625 113.295573,21.7291667 114.261719,21.984375 C115.227865,22.2395833 115.765625,22.5130208 115.875,22.8046875 C116.130208,23.7890625 116.257812,25.3567708 116.257812,27.5078125 L116.257812,27.5078125 L116.257287,48.5066122 C116.248185,51.2944494 116.120756,52.8990162 115.875,53.3203125 C115.692708,53.6484375 115.136719,53.9401042 114.207031,54.1953125 C113.277344,54.4505208 112.575521,54.578125 112.101562,54.578125 C111.992188,54.578125 111.9375,54.8151042 111.9375,55.2890625 C111.9375,55.7630208 111.992188,56.0546875 112.101562,56.1640625 L112.101562,56.1640625 L118.71875,56 C121.270833,56 124.552083,56.0364583 128.5625,56.109375 C132.572917,56.1822917 135.507812,56.21875 137.367188,56.21875 Z M186.234375,56.1640625 C186.307292,55.9453125 186.34375,55.671875 186.34375,55.34375 C186.34375,54.8333333 186.270833,54.578125 186.125,54.578125 C185.651042,54.578125 184.858073,54.4322917 183.746094,54.140625 C182.634115,53.8489583 181.986979,53.4661458 181.804688,52.9921875 C181.513021,52.2630208 181.367188,50.6770833 181.367188,48.234375 L181.367188,48.234375 L181.367606,28.3426339 C181.371233,26.7756696 181.398438,25.5859375 181.449219,24.7734375 C181.503906,23.8984375 181.567708,23.3424479 181.640625,23.1054688 C181.713542,22.8684896 181.841146,22.7317708 182.023438,22.6953125 C182.934896,22.4401042 184.210938,22.3125 185.851562,22.3125 C188.221354,22.3125 189.971354,23.0690104 191.101562,24.5820312 C192.231771,26.0950521 192.796875,28.1458333 192.796875,30.734375 C192.796875,32.8489583 192.140625,34.671875 190.828125,36.203125 C189.515625,37.734375 187.947917,38.5 186.125,38.5 C184.776042,38.5 183.554688,38.2994792 182.460938,37.8984375 C182.388021,37.8619792 182.333333,37.9166667 182.296875,38.0625 C182.1875,38.6458333 182.242188,39.0651042 182.460938,39.3203125 C183.226562,40.3411458 184.630208,40.8515625 186.671875,40.8515625 C188.494792,40.8515625 190.144531,40.4778646 191.621094,39.7304688 C193.097656,38.9830729 194.273438,38.0351562 195.148438,36.8867188 C196.023438,35.7382812 196.688802,34.5533854 197.144531,33.3320312 C197.60026,32.1106771 197.828125,30.9713542 197.828125,29.9140625 C197.828125,28.1276042 197.463542,26.5598958 196.734375,25.2109375 C196.005208,23.8619792 195.066406,22.8229167 193.917969,22.09375 C192.769531,21.3645833 191.584635,20.8177083 190.363281,20.453125 C189.141927,20.0885417 187.929688,19.90625 186.726562,19.90625 C185.669271,19.90625 184.393229,19.9427083 182.898438,20.015625 C181.403646,20.0885417 180.109375,20.125 179.015625,20.125 L179.015625,20.125 L172.453125,20.015625 C172.307292,20.1614583 172.234375,20.4713542 172.234375,20.9453125 C172.234375,21.3828125 172.307292,21.6015625 172.453125,21.6015625 C172.927083,21.6015625 173.647135,21.7291667 174.613281,21.984375 C175.579427,22.2395833 176.117188,22.5130208 176.226562,22.8046875 C176.481771,23.7890625 176.609375,25.3567708 176.609375,27.5078125 L176.609375,27.5078125 L176.609375,48.1796875 C176.609375,51.1692708 176.481771,52.8828125 176.226562,53.3203125 C176.044271,53.6484375 175.497396,53.921875 174.585938,54.140625 C173.674479,54.359375 172.963542,54.46875 172.453125,54.46875 C172.34375,54.46875 172.289062,54.7057292 172.289062,55.1796875 C172.289062,55.7265625 172.34375,56.0546875 172.453125,56.1640625 L172.453125,56.1640625 L179.125,55.890625 C180.21875,55.890625 182.588542,55.9817708 186.234375,56.1640625 Z M234.921875,56.21875 C234.994792,55.671875 235.158854,54.9791667 235.414062,54.140625 C235.669271,53.3020833 235.90625,52.5638021 236.125,51.9257812 C236.34375,51.2877604 236.644531,50.4492188 237.027344,49.4101562 C237.410156,48.3710938 237.692708,47.6145833 237.875,47.140625 C237.65625,46.921875 237.200521,46.8125 236.507812,46.8125 C236.070312,46.8125 235.815104,46.921875 235.742188,47.140625 C235.341146,48.5260417 234.803385,49.7200521 234.128906,50.7226562 C233.454427,51.7252604 232.84375,52.3723958 232.296875,52.6640625 C231.09375,53.2838542 228.796875,53.59375 225.40625,53.59375 L225.40625,53.59375 L222.78125,53.59375 C220.411458,53.59375 219.171875,53.4114583 219.0625,53.046875 C218.734375,52.0989583 218.570312,50.4401042 218.570312,48.0703125 L218.570312,48.0703125 L218.570312,39.59375 C218.570312,39.265625 219.882812,39.1015625 222.507812,39.1015625 C225.898438,39.1015625 227.830729,39.2473958 228.304688,39.5390625 C228.523438,39.6848958 228.678385,39.8033854 228.769531,39.8945312 C228.860677,39.9856771 228.997396,40.2773438 229.179688,40.7695312 C229.361979,41.2617188 229.580729,42 229.835938,42.984375 C229.945312,43.2760417 230.236979,43.421875 230.710938,43.421875 C231.148438,43.421875 231.440104,43.3489583 231.585938,43.203125 L231.585938,43.203125 L231.585938,32.8671875 C231.403646,32.6848958 231.09375,32.59375 230.65625,32.59375 C230.145833,32.59375 229.872396,32.7213542 229.835938,32.9765625 C229.617188,33.8151042 229.489583,34.3346354 229.453125,34.5351562 C229.416667,34.7356771 229.279948,35.0546875 229.042969,35.4921875 C228.80599,35.9296875 228.614583,36.1666667 228.46875,36.203125 C228.322917,36.2395833 227.994792,36.3307292 227.484375,36.4765625 C226.973958,36.6223958 226.490885,36.6953125 226.035156,36.6953125 L226.035156,36.6953125 L220.921875,36.6953125 C219.354167,36.6953125 218.570312,36.5859375 218.570312,36.3671875 L218.570312,36.3671875 L218.570312,27.6171875 C218.570312,25.4296875 218.661458,23.8984375 218.84375,23.0234375 C218.916667,22.5494792 220.520833,22.3125 223.65625,22.3125 L223.65625,22.3125 L227.320312,22.3125 C229.033854,22.3125 230.382812,22.5950521 231.367188,23.1601562 C232.351562,23.7252604 233.117188,25.0104167 233.664062,27.015625 C233.700521,27.2708333 233.955729,27.3984375 234.429688,27.3984375 C234.903646,27.3984375 235.231771,27.3072917 235.414062,27.125 C235.341146,26.6875 235.095052,25.6028646 234.675781,23.8710938 C234.25651,22.1393229 233.973958,20.7447917 233.828125,19.6875 C231.786458,19.6875 228.742188,19.7604167 224.695312,19.90625 C220.648438,20.0520833 217.804688,20.125 216.164062,20.125 C213.721354,20.125 211.552083,20.0885417 209.65625,20.015625 C209.510417,20.1614583 209.4375,20.4713542 209.4375,20.9453125 C209.4375,21.3828125 209.510417,21.6015625 209.65625,21.6015625 C210.130208,21.6015625 210.85026,21.7291667 211.816406,21.984375 C212.782552,22.2395833 213.320312,22.5130208 213.429688,22.8046875 C213.684896,23.7890625 213.8125,25.3567708 213.8125,27.5078125 L213.8125,27.5078125 L213.8125,48.1796875 C213.8125,51.1692708 213.684896,52.8828125 213.429688,53.3203125 C213.247396,53.6484375 212.691406,53.9401042 211.761719,54.1953125 C210.832031,54.4505208 210.130208,54.578125 209.65625,54.578125 C209.546875,54.578125 209.492188,54.8151042 209.492188,55.2890625 C209.492188,55.7630208 209.546875,56.0546875 209.65625,56.1640625 L209.65625,56.1640625 L216.273438,56 C218.825521,56 222.106771,56.0364583 226.117188,56.109375 C230.127604,56.1822917 233.0625,56.21875 234.921875,56.21875 Z M271.851562,56.1640625 C271.924479,55.9453125 271.960938,55.6901042 271.960938,55.3984375 C271.960938,54.8515625 271.888021,54.578125 271.742188,54.578125 C271.377604,54.578125 270.721354,54.4596354 269.773438,54.2226562 C268.825521,53.9856771 268.315104,53.7395833 268.242188,53.484375 C267.914062,52.2083333 267.75,50.5130208 267.75,48.3984375 L267.75,48.3984375 L267.75,28.65625 C267.75,26.1770833 267.914062,24.3541667 268.242188,23.1875 C268.388021,22.640625 270.393229,22.3671875 274.257812,22.3671875 C276.335938,22.3671875 277.748698,22.6679688 278.496094,23.2695312 C279.24349,23.8710938 279.872396,25.1927083 280.382812,27.234375 C280.419271,27.4166667 280.601562,27.5078125 280.929688,27.5078125 C281.549479,27.5078125 281.986979,27.3802083 282.242188,27.125 L282.242188,27.125 L281.203125,19.3046875 C279.598958,19.7057292 278.341146,19.90625 277.429688,19.90625 C276.044271,19.90625 274.09375,19.9427083 271.578125,20.015625 C269.0625,20.0885417 267.002604,20.125 265.398438,20.125 L265.047712,20.124442 C263.497675,20.1196057 261.554688,20.0833333 259.21875,20.015625 C256.739583,19.9427083 254.807292,19.90625 253.421875,19.90625 C252.510417,19.90625 251.252604,19.7057292 249.648438,19.3046875 L249.648438,19.3046875 L248.609375,27.125 C248.864583,27.3802083 249.302083,27.5078125 249.921875,27.5078125 C250.25,27.5078125 250.432292,27.4166667 250.46875,27.234375 C250.979167,25.1927083 251.608073,23.8710938 252.355469,23.2695312 C253.102865,22.6679688 254.515625,22.3671875 256.59375,22.3671875 C260.239583,22.3671875 262.208333,22.640625 262.5,23.1875 C262.828125,23.7708333 262.992188,25.6484375 262.992188,28.8203125 L262.992188,28.8203125 L262.992188,48.6171875 C262.992188,50.8776042 262.864583,52.5 262.609375,53.484375 C262.5,53.7760417 261.980469,54.03125 261.050781,54.25 C260.121094,54.46875 259.419271,54.578125 258.945312,54.578125 C258.799479,54.578125 258.726562,54.8333333 258.726562,55.34375 C258.726562,55.7447917 258.799479,56.0182292 258.945312,56.1640625 C263.138021,55.9817708 265.325521,55.890625 265.507812,55.890625 L265.57362,55.8909501 C266.2388,55.8970193 268.331448,55.9880568 271.851562,56.1640625 Z M327.976562,56.1640625 C328.049479,55.9453125 328.085938,55.7630208 328.085938,55.6171875 C328.085938,54.9244792 328.013021,54.578125 327.867188,54.578125 C327.429688,54.578125 326.755208,54.4049479 325.84375,54.0585938 C324.932292,53.7122396 324.367188,53.265625 324.148438,52.71875 C323.747396,51.8072917 323.21875,50.4947917 322.5625,48.78125 L322.5625,48.78125 L311.625,19.90625 L311.132812,19.7421875 C310.877604,19.7421875 310.64974,19.7786458 310.449219,19.8515625 C310.248698,19.9244792 310.066406,20.0520833 309.902344,20.234375 C309.738281,20.4166667 309.601562,20.5807292 309.492188,20.7265625 C309.382812,20.8723958 309.255208,21.1002604 309.109375,21.4101562 C308.963542,21.7200521 308.854167,21.9752604 308.78125,22.1757812 C308.708333,22.3763021 308.608073,22.6770833 308.480469,23.078125 C308.352865,23.4791667 308.252604,23.7708333 308.179688,23.953125 L308.179688,23.953125 L298.664062,48.3984375 C297.716146,50.8411458 296.859375,52.5546875 296.09375,53.5390625 C295.838542,53.8671875 295.364583,54.1223958 294.671875,54.3046875 C293.979167,54.4869792 293.414062,54.578125 292.976562,54.578125 C292.830729,54.578125 292.757812,54.8333333 292.757812,55.34375 C292.757812,55.7447917 292.830729,56.0182292 292.976562,56.1640625 C293.596354,56.1276042 294.24349,56.0911458 294.917969,56.0546875 C295.592448,56.0182292 296.203125,55.9817708 296.75,55.9453125 C297.296875,55.9088542 297.934896,55.890625 298.664062,55.890625 C298.773438,55.890625 300.651042,55.9817708 304.296875,56.1640625 C304.369792,55.9817708 304.397135,55.671875 304.378906,55.234375 C304.360677,54.796875 304.296875,54.578125 304.1875,54.578125 C303.859375,54.578125 303.330729,54.4960938 302.601562,54.3320312 C301.872396,54.1679688 301.34375,53.9583333 301.015625,53.703125 C300.723958,53.484375 300.578125,53.1197917 300.578125,52.609375 C300.578125,51.9166667 300.888021,50.6588542 301.507812,48.8359375 L301.507812,48.8359375 L303.859375,42.8203125 L304.132812,42.65625 C306.867188,42.4739583 309.182292,42.3828125 311.078125,42.3828125 C312.427083,42.3828125 313.8125,42.4375 315.234375,42.546875 C315.34375,42.546875 315.453125,42.6197917 315.5625,42.765625 L315.5625,42.765625 L317.804688,48.9453125 L318.023438,49.546875 C318.132812,49.9114583 318.251302,50.4127604 318.378906,51.0507812 C318.50651,51.6888021 318.570312,52.2447917 318.570312,52.71875 C318.570312,53.0104167 318.533854,53.3020833 318.460938,53.59375 C318.351562,53.8854167 317.96875,54.1223958 317.3125,54.3046875 C316.65625,54.4869792 316.109375,54.578125 315.671875,54.578125 C315.526042,54.578125 315.44401,54.8059896 315.425781,55.2617188 C315.407552,55.7174479 315.471354,56.0182292 315.617188,56.1640625 C319.809896,55.9817708 321.924479,55.890625 321.960938,55.890625 L322.002865,55.8909288 C322.461024,55.8968027 324.452257,55.9878472 327.976562,56.1640625 Z M309.164062,39.7578125 C308.471354,39.7578125 307.177083,39.7213542 305.28125,39.6484375 C305.208333,39.6484375 305.171875,39.5755208 305.171875,39.4296875 L305.171875,39.4296875 L309.875,27.234375 L314.304688,39.3203125 L314.140625,39.59375 C312.427083,39.703125 310.768229,39.7578125 309.164062,39.7578125 Z M364.46875,56.21875 C364.541667,55.671875 364.705729,54.9791667 364.960938,54.140625 C365.216146,53.3020833 365.453125,52.5638021 365.671875,51.9257812 C365.890625,51.2877604 366.191406,50.4492188 366.574219,49.4101562 C366.957031,48.3710938 367.239583,47.6145833 367.421875,47.140625 C367.203125,46.921875 366.747396,46.8125 366.054688,46.8125 C365.617188,46.8125 365.361979,46.921875 365.289062,47.140625 C364.888021,48.5260417 364.35026,49.7200521 363.675781,50.7226562 C363.001302,51.7252604 362.390625,52.3723958 361.84375,52.6640625 C360.640625,53.2838542 358.34375,53.59375 354.953125,53.59375 L354.953125,53.59375 L352.328125,53.59375 C349.958333,53.59375 348.71875,53.4114583 348.609375,53.046875 C348.28125,51.7708333 348.117188,50.1666667 348.117188,48.234375 L348.117188,48.234375 L348.117188,27.6171875 C348.117188,25.5026042 348.28125,23.8072917 348.609375,22.53125 C348.682292,22.2760417 349.192708,22.0208333 350.140625,21.765625 C351.088542,21.5104167 351.744792,21.3828125 352.109375,21.3828125 C352.255208,21.3828125 352.328125,21.1276042 352.328125,20.6171875 C352.328125,20.2890625 352.291667,20.015625 352.21875,19.796875 C351.708333,19.8333333 351.052083,19.8789062 350.25,19.9335938 C349.447917,19.9882812 348.700521,20.0338542 348.007812,20.0703125 C347.315104,20.1067708 346.604167,20.125 345.875,20.125 C344.890625,20.125 343.669271,20.0794271 342.210938,19.9882812 C340.752604,19.8971354 339.786458,19.8333333 339.3125,19.796875 C339.166667,19.9427083 339.09375,20.234375 339.09375,20.671875 C339.09375,21.1458333 339.166667,21.3828125 339.3125,21.3828125 C339.786458,21.3828125 340.488281,21.5013021 341.417969,21.7382812 C342.347656,21.9752604 342.867188,22.2395833 342.976562,22.53125 C343.231771,23.515625 343.359375,25.1744792 343.359375,27.5078125 L343.359375,27.5078125 L343.359375,48.1796875 C343.359375,51.1692708 343.231771,52.8828125 342.976562,53.3203125 C342.794271,53.6484375 342.247396,53.921875 341.335938,54.140625 C340.424479,54.359375 339.713542,54.46875 339.203125,54.46875 C339.09375,54.46875 339.039062,54.7057292 339.039062,55.1796875 C339.039062,55.6536458 339.09375,55.9453125 339.203125,56.0546875 L339.203125,56.0546875 L345.820312,55.890625 C348.299479,55.890625 351.553385,55.9453125 355.582031,56.0546875 C359.610677,56.1640625 362.572917,56.21875 364.46875,56.21875 Z" id="FIVEPETAL" fill="#FEFEFE"></path>
                <path d="M93.3,132.6 C93.9,132.6 94.6,132.2 95.2,131.6 C96.7,130.4 98.7,127 99.6,123.8 C100.6,120.3 101.1,116.7 101.1,113.2 C101.1,107.3 99.7,101.5 97.2,97 L98,93.3 L98,93.2 C98.9,93.2 99.8,93.3 100.6,93.3 C111.6,93.3 121,89.8 128.7,85.1 C129.1,85 129.2,84.7 129.2,84.4 C129.2,83.9 128.8,83.3 128.2,83.3 C128,83.3 127.9,83.4 127.7,83.5 C121.1,87.5 112.5,91.2 103.5,91.2 C102.8,91.2 102,91.2 101.3,91.1 C102.9,89.9 105.7,87.6 107.4,85.6 C114.1,78.1 119.7,66.9 120.4,59.7 C120.7,56.3 119.6,54 116.6,54 C108.4,54 101.5,70.9 96.5,91.5 C96.2,91.6 95.6,91.7 94.8,91.8 C94,91.9 93.4,92 93.1,92.1 C92.3,92.3 92,92.8 92,93.3 C92,93.6 92.1,93.9 92.3,94.1 L93.4,95.2 C93.8,95.5 94.1,95.8 94.3,96 C94.5,96.3 94.8,96.8 95.2,97.3 C93.6,104.4 92.4,111.5 91.6,118.8 C91.2,122.4 91,125.3 91,127.6 C91.2,131.2 92.1,132.6 93.3,132.6 Z M98.6,90.8 C103,72.5 109.7,56.7 116.2,55.8 C117.9,55.7 118.8,56.8 118.5,59.6 C118.3,62.7 117,66.6 114.6,71.4 C109.8,81 103.3,88 98.6,90.8 Z M95.7,94.8 C95.6,94.5 95.2,94.2 94.7,93.8 C94.8,93.7 94.9,93.7 95.2,93.7 C95.4,93.9 95.6,94 95.9,94 C95.8,94.1 95.7,94.7 95.7,94.8 Z M93.2,130.6 L93.2,130.4 C93.1,130.3 93.1,130.2 93.1,130.1 C93,129.7 92.9,128.1 92.9,127.6 C92.9,125.4 93.1,122.5 93.5,119 C94.1,113.3 95.1,106.9 96.6,99.9 C98.1,103.3 99.2,108 99.2,113.2 C99.2,116.4 98.7,119.9 97.7,123.3 C97.4,124.4 96.7,125.9 95.6,128 C94.9,129.2 94.3,129.9 94,130.2 C93.5,130.5 93.3,130.7 93.2,130.6 Z M132.6,78.9 C132.7,78.9 132.8,78.8 132.9,78.8 C133.6,78.4 134.1,77.3 134.1,76.6 C134.1,76.2 133.9,75.9 133.4,75.9 L133.1,75.9 C132.3,75.9 132,77.1 132,78 C132,78.6 132.2,78.9 132.6,78.9 Z M133,96.6 C137.636364,96.6 143.677686,93.2942149 149.621337,89.6879038 L150.511965,89.1450789 C150.808471,88.9636364 151.104545,88.7818182 151.4,88.6 L152.1,88.1 C153,87.6 153.9,87 155,86.3 L157.1,85 C157.5,84.8 157.6,84.6 157.6,84.3 C157.6,83.8 157.1,83.3 156.5,83.3 C156.4,83.3 156.3,83.3 156.2,83.4 C155.5,83.7 153.8,84.8 151.1,86.5 L150.3,86.9 C143.6,91.1 137.3,94.6 133,94.6 C131.3,94.6 129.9,94.1 128.9,92.8 C128.4,92.1 128.1,91.2 128.1,90.2 C128.1,88 129.2,85.2 131.3,82.3 C131.5,82.1 131.5,81.9 131.5,81.7 C131.5,81.2 131,80.8 130.5,80.8 C130.3,80.8 130,80.9 129.8,81.2 C127.3,84.7 126.1,87.6 126.1,90.1 C126.1,91.5 126.5,92.8 127.4,94 C128.8,95.8 130.7,96.6 133,96.6 Z M165.1,95.3 C171.3,95.3 179.2,91.1 183.2,85.6 C183.4,85.4 183.4,85.1 183.4,84.9 C183.4,84.4 183,84 182.6,84 C182.3,84 182,84.2 181.7,84.5 C180,86.6 174.8,90.6 171.5,92 C169.1,92.9 167,93.3 165.2,93.3 C162.2,93.3 160.1,92.1 159,90.1 C158.7,89.6 158.6,89.1 158.5,88.8 C160.2,87.9 161.8,86.7 163.1,85.4 C164.5,84 165.4,82.6 165.4,81.3 C165.4,80.2 164.8,79.3 163.3,78.6 C162.6,78.3 162,78.2 161.4,78.2 C158.6,78.2 156.7,81.1 156.1,85 L156.1,85.7 C156.1,86.3 156.1,87.1 156.2,87.9 L156.5,89.1 C156.8,90 157,90.7 157.3,91.1 C158.8,94 161.7,95.3 165.1,95.3 Z M158.1,86.7 L158.1,85.2 C158.3,83.4 158.9,82 159.8,81.1 C160.4,80.5 161,80.3 161.6,80.3 C162.5,80.3 163.4,80.9 163.4,81.5 C163,83.1 161.2,84.7 158.7,86.3 C158.6,86.4 158.4,86.6 158.1,86.7 Z M188.1,96.2 C193,96.2 199.8,92.6 207.5,85.6 C207.7,85.4 207.7,85.1 207.7,84.8 C207.7,84.3 207.5,83.9 207,83.9 C206.8,83.9 206.5,84 206.3,84.2 C199.1,90.2 193.2,94.1 188.1,94.1 C183.9,94.1 182,91.9 181.3,87.9 C183,86.6 185.2,84.1 188,80.2 C194.2,71.7 200.6,60 200.6,54.1 C200.6,51.2 199.4,49.2 196.9,48.7 C192.9,48.7 189.2,53.3 185.5,60.8 C181.6,68.6 179.1,77.5 179.1,84.3 C179.1,87.9 179.8,91 181.3,93 C182.9,95.2 185.3,96.2 188.1,96.2 Z M181,85.5 C181,83.3 181.2,81.1 181.5,79.1 C183.8,65.4 192.6,50 196.5,50.6 C198,51 198.7,52.1 198.7,54 C198.7,54.6 198.6,55.2 198.5,55.9 C198,59 196.4,63 193.7,67.7 C190.1,74.4 184.3,82.2 181,85.5 Z M208.7,93.8 C209.4,93.8 210.1,93.7 210.8,93.3 C213.3,92.2 216.1,90.1 219.1,87 C219.6,86.5 220.8,85 221.2,84.5 C221.9,89.5 224.4,92.9 229.9,92.9 C230.5,92.9 231.1,92.9 231.7,92.8 C237.6,92 242.3,89.5 250,85 C250.3,84.9 250.5,84.6 250.5,84.3 C250.5,84.1 250.5,83.9 250.4,83.7 C250.2,83.4 249.9,83.2 249.6,83.2 C249.5,83.2 249.3,83.3 249.1,83.4 C241.6,87.8 235.1,91 230,91 C225.3,91 223,88 222.9,82.2 C224,80.5 224.8,79.4 225.2,78.8 C226.9,76.5 227.8,75.2 227.9,75 L229.1,72.9 C229.6,72.1 230.2,70.9 231,68.9 C231.5,67.6 233.2,63.4 233.5,62.2 C234.1,60.4 234.4,58.7 234.4,57.3 C234.4,55 233.6,53.2 231.6,52.4 C231.3,52.3 230.9,52.3 230.6,52.4 C229.8,52.6 229,53.2 228.1,54.3 L227.2,55.8 C223.5,62.5 221.4,70.5 221,79.9 L221,81.6 C220,82.9 219.4,83.7 219.1,84 C216.9,82.1 215,81.3 213.2,81.3 C208.8,81.3 205.9,84.9 205,87.8 C204.8,88.4 204.7,89 204.7,89.6 C204.7,91.9 206.3,93.8 208.7,93.8 Z M223,78.8 C223.5,70 225.5,62.7 228.9,56.8 C229.9,55.2 230.7,54.2 231.3,54.2 C231.8,54.2 232.2,54.9 232.5,56.6 C232.6,57.9 232.3,59.5 231.7,61.6 C231.3,63.2 230.4,65.7 229.3,68.1 L228.5,69.9 L227.4,72 C226.7,73.3 226.6,73.6 225.1,75.7 L223.6,77.8 C223.3,78.2 223.1,78.5 223,78.8 Z M208.6,92 C208.1,92 207.6,91.8 207.2,91.3 C206.8,90.8 206.6,90.2 206.6,89.5 C206.6,84.9 210.2,83.2 213.3,83.2 C214.6,83.2 216.1,83.4 217.7,85.6 L217.6,85.7 C215.1,88.4 212.6,90.4 210.1,91.6 C209.5,91.9 209.1,92 208.6,92 Z M253.6,98.9 L253.9,98.8 C255.8,97.8 257.6,97 260.7,95.8 C261.6,95.4 262.4,95.1 263.1,94.9 L265.7,94 C268.1,93.1 269.9,92.4 271.1,91.9 C277,89.4 281.6,86.7 284.8,83.7 C285.1,83.4 285.2,83.2 285.2,83 C285.2,82.7 285.1,82.5 284.9,82.3 C284.4,81.9 283.9,81.9 283.5,82.3 C280.4,85.2 276,87.8 270.3,90.1 C269.2,90.6 267.4,91.3 265,92.2 C264.7,92.3 263.8,92.6 262.5,93.1 C262.2,93.2 261.7,93.4 261.2,93.5 C260.6,93.7 260.2,93.9 260,94 C259.8,94.05 259.275,94.25 258.7125,94.475 L258.288086,94.6464844 C258.147266,94.7039062 258.008594,94.7609375 257.876562,94.815625 L257.504883,94.9707031 C257.390625,95.01875 257.2875,95.0625 257.2,95.1 C257.3,94.8 257.4,94.4 257.4,94 C257.4,93.5 257.3,93 257.1,92.4 C256.8,91.2 255.9,89.7 254.4,87.8 L254,87.2 L252.3,85.1 C251.8,84.4 251.5,83.8 251.4,83.5 L251.2,83.3 C251,83.1 250.6,82.9 250.4,82.9 L250.2,82.9 C249.7,83 249.5,83.2 249.5,83.5 C249.5,83.7 249.5,83.8 249.6,84 C249.8,84.7 250.2,85.4 250.7,86.2 C251,86.5 252.6,88.5 252.9,89 C254.4,90.8 255.6,92.4 255.6,93.8 C255.6,95 254.9,96 253.1,97.1 C252.8,97.3 252.7,97.6 252.7,97.9 C252.7,98.2 252.7,98.3 252.8,98.4 C253,98.7 253.3,98.9 253.6,98.9 Z" id="fields" fill="#E7E7E7"></path>
            </g>
        </g>
    </g>
</svg>
