<?xml version="1.0" standalone="no"?>
<!DOCTYPE svg PUBLIC "-//W3C//DTD SVG 20010904//EN"
 "http://www.w3.org/TR/2001/REC-SVG-20010904/DTD/svg10.dtd">
<svg version="1.0" xmlns="http://www.w3.org/2000/svg"
 width="340.000000pt" height="340.000000pt" viewBox="0 0 340.000000 340.000000"
 preserveAspectRatio="xMidYMid meet">
<metadata>
Created by potrace 1.14, written by Peter Selinger 2001-2017
</metadata>
<g transform="translate(0.000000,340.000000) scale(0.100000,-0.100000)"
fill="#000000" stroke="none">
<path d="M0 1700 l0 -1700 1700 0 1700 0 0 1700 0 1700 -1700 0 -1700 0 0
-1700z m1104 1105 c4 -20 10 -43 13 -51 3 -8 -1 -14 -11 -14 -9 0 -16 6 -16
13 0 8 -8 22 -19 31 -15 13 -34 16 -97 14 l-79 -3 -3 -93 -3 -93 68 3 c63 3
69 5 81 31 20 42 32 23 32 -54 0 -52 -3 -69 -14 -69 -8 0 -17 11 -20 24 -5 19
-14 25 -50 30 -24 4 -56 4 -70 0 -25 -6 -26 -8 -26 -86 0 -87 11 -118 40 -118
11 0 20 -4 20 -10 0 -6 -37 -10 -90 -10 -53 0 -90 4 -90 10 0 6 9 10 20 10 34
0 40 32 40 220 0 188 -6 220 -40 220 -11 0 -20 6 -20 13 0 9 41 13 164 15
l163 4 7 -37z m356 24 c0 -5 -11 -11 -24 -15 -32 -8 -36 -33 -36 -219 0 -186
5 -213 36 -221 51 -13 20 -24 -66 -24 -53 0 -90 4 -90 10 0 6 8 10 18 10 39 0
42 17 42 228 l0 203 -30 10 c-52 19 -33 27 60 27 50 0 90 -4 90 -9z m330 0 c0
-5 -4 -9 -8 -9 -5 0 -16 -6 -26 -13 -17 -13 -14 -23 45 -175 35 -89 68 -161
73 -159 12 4 125 278 126 305 0 14 -9 26 -25 34 -43 19 -28 26 55 26 44 0 80
-3 80 -6 0 -4 -12 -14 -28 -23 -22 -13 -43 -54 -116 -230 -49 -118 -95 -220
-101 -228 -17 -17 -15 -22 -115 233 -70 177 -87 211 -111 225 -16 9 -29 19
-29 22 0 4 41 7 90 7 50 0 90 -4 90 -9z m794 -25 c4 -19 10 -42 13 -50 3 -8
-1 -14 -11 -14 -9 0 -16 6 -16 13 0 8 -8 22 -19 31 -15 13 -34 16 -97 14 l-79
-3 -3 -93 -3 -93 68 3 c63 3 69 5 81 31 20 42 32 23 32 -54 0 -71 -13 -90 -30
-44 -11 28 -39 38 -101 33 l-44 -3 -3 -77 c-2 -45 2 -87 9 -99 10 -20 17 -21
92 -17 74 5 82 7 104 34 12 16 23 35 23 42 0 6 7 12 16 12 16 0 16 -3 -11 -80
l-12 -35 -171 -3 c-95 -1 -172 1 -172 6 0 4 14 13 30 19 l30 11 0 199 c0 206
-3 223 -42 223 -10 0 -18 4 -18 10 0 9 65 14 241 18 l87 2 6 -36z m-724 -734
c0 -8 3 -32 6 -52 8 -44 -11 -53 -26 -14 -15 41 -72 57 -137 40 -23 -6 -23 -7
-23 -210 l0 -204 25 -12 c44 -20 27 -28 -58 -28 -93 0 -112 7 -67 26 l30 13 0
200 c0 225 1 221 -75 221 -46 0 -73 -15 -85 -46 -5 -13 -14 -24 -20 -24 -11 0
-12 19 -4 70 l6 35 214 0 c183 0 214 -2 214 -15z m-1203 -9 c95 -44 97 -174 3
-238 -36 -25 -108 -31 -128 -11 -21 21 -13 26 28 21 34 -5 43 -2 70 25 26 26
30 38 30 82 0 44 -4 56 -29 81 -21 20 -39 29 -63 29 -59 0 -59 2 -56 -216 l3
-199 33 -14 c17 -8 32 -18 32 -23 0 -4 -43 -8 -95 -8 -94 0 -121 11 -71 29 31
12 36 43 36 215 0 182 -5 213 -36 220 -13 4 -24 11 -24 16 0 6 45 10 113 10
88 0 121 -4 154 -19z m571 -28 c15 -69 5 -71 -34 -7 -8 15 -27 19 -85 22 -96
5 -101 0 -97 -110 l3 -83 34 -3 c60 -6 101 7 111 34 17 45 30 26 30 -45 0 -77
-12 -96 -32 -54 -12 26 -18 28 -81 31 l-67 3 0 -80 c0 -114 -2 -111 95 -111
90 0 102 5 130 61 9 16 20 29 25 29 13 0 12 -6 -10 -70 l-19 -55 -170 -3
c-104 -1 -171 1 -171 7 0 5 10 13 23 17 12 4 25 12 29 18 4 6 8 97 8 201 0
105 -4 195 -8 201 -4 6 -17 14 -29 18 -57 18 -12 26 141 26 l164 0 10 -47z
m1070 -30 c16 -43 54 -143 83 -222 44 -117 59 -147 81 -160 16 -9 28 -19 28
-23 0 -5 -38 -8 -85 -8 -81 0 -109 11 -64 25 18 6 21 13 16 44 -2 20 -13 54
-23 76 -18 37 -23 40 -64 43 -88 6 -105 -2 -129 -64 -27 -71 -26 -82 4 -96 43
-19 28 -28 -49 -28 -75 0 -109 14 -62 26 15 3 31 19 41 40 15 32 165 414 165
421 0 2 6 3 14 3 9 0 26 -31 44 -77z m522 67 c0 -5 -6 -10 -14 -10 -8 0 -22
-7 -30 -16 -13 -13 -16 -45 -16 -199 0 -101 3 -190 6 -199 5 -13 23 -16 89
-16 88 0 99 6 141 76 22 37 24 7 3 -54 l-21 -62 -170 0 c-131 0 -169 3 -166
13 3 6 14 13 25 15 12 2 24 13 27 25 8 29 7 356 0 385 -4 12 -17 25 -30 28
-51 13 -20 24 66 24 53 0 90 -4 90 -10z m-934 -535 c14 -21 15 -32 4 -72 -17
-70 -84 -193 -157 -289 -57 -76 -62 -87 -52 -107 17 -31 28 -37 72 -37 46 0
100 27 186 92 77 58 100 65 142 44 43 -22 59 -7 59 54 0 98 59 267 102 294 27
16 52 -14 50 -60 -2 -53 -46 -163 -93 -229 -41 -59 -46 -79 -28 -119 28 -60
105 -56 239 15 l74 39 23 -28 c12 -15 32 -46 44 -69 11 -24 23 -43 26 -43 20
0 219 86 250 108 57 42 63 45 63 30 0 -21 -103 -84 -193 -118 -45 -17 -104
-40 -130 -51 -54 -22 -69 -19 -44 9 24 27 21 49 -13 92 l-31 39 -82 -40 c-136
-65 -214 -63 -243 7 l-15 37 -32 -30 c-84 -78 -128 -91 -154 -44 l-17 28 -59
-38 c-95 -62 -177 -62 -215 0 l-18 29 -24 -19 c-39 -29 -117 -52 -157 -46 -44
7 -80 40 -88 78 l-7 29 -41 -26 c-88 -54 -182 -94 -221 -94 -52 0 -86 31 -86
77 0 18 -2 33 -4 33 -2 0 -25 -10 -52 -22 -74 -32 -142 -48 -211 -48 -76 0
-83 -12 -53 -100 38 -113 22 -282 -34 -347 -60 -69 -72 26 -35 264 20 124 20
135 5 152 -23 25 -20 41 9 41 20 0 26 7 35 43 64 248 152 407 224 407 37 0 49
-24 43 -83 -10 -92 -95 -247 -177 -321 l-40 -36 38 0 c80 0 258 67 289 109 22
30 23 5 1 -46 -20 -49 -20 -53 -4 -77 20 -31 57 -34 114 -11 61 26 212 119
212 131 0 21 38 46 67 42 22 -2 29 -9 31 -29 2 -21 -6 -34 -38 -62 l-42 -35
21 -21 c32 -32 103 -28 167 8 l51 30 6 68 c11 116 82 294 145 361 37 40 75 42
98 7z m-776 -310 c0 -8 -4 -15 -10 -15 -5 0 -10 7 -10 15 0 8 5 15 10 15 6 0
10 -7 10 -15z"/>
<path d="M2213 1902 c-17 -45 -28 -84 -25 -87 3 -3 30 -5 60 -5 62 0 62 -3 19
112 l-23 61 -31 -81z"/>
<path d="M1800 1503 c-63 -71 -135 -261 -128 -336 l3 -32 53 70 c79 105 144
239 140 289 -4 54 -26 57 -68 9z"/>
<path d="M2230 1468 c-24 -38 -56 -143 -64 -208 l-6 -45 22 25 c11 14 34 54
50 89 50 108 48 220 -2 139z"/>
<path d="M851 1442 c-23 -24 -52 -74 -74 -125 -39 -94 -82 -236 -73 -244 10
-11 116 108 155 174 97 167 91 300 -8 195z"/>
<path d="M1410 1169 c-6 -11 -10 -28 -8 -37 3 -14 8 -13 31 11 28 27 29 47 2
47 -8 0 -19 -9 -25 -21z"/>
<path d="M1987 1132 c-21 -23 -22 -71 -1 -79 21 -8 99 50 99 73 0 28 -75 32
-98 6z"/>
<path d="M662 900 c-19 -90 -32 -191 -31 -255 l0 -60 19 23 c46 55 64 216 36
307 l-13 40 -11 -55z"/>
</g>
</svg>
